HIERARCHY
ROOT Hips
{
	OFFSET 0.000000 0.000000 0.000000 
	CHANNELS 6 Xposition Yposition Zposition Zrotation Yrotation Xrotation
	JOINT LeftUpLeg
	{
		OFFSET 1.363060 -1.794630 0.839290 
		CHANNELS 3 Zrotation Yrotation Xrotation
		JOINT LeftLeg
		{
			OFFSET 2.448110 -6.726130 0.000000 
			CHANNELS 3 Zrotation Yrotation Xrotation
			JOINT LeftFoot
			{
				OFFSET 2.562200 -7.039590 0.000000 
				CHANNELS 3 Zrotation Yrotation Xrotation
				JOINT LeftToeBase
				{
					OFFSET 0.157640 -0.433110 2.322550 
					CHANNELS 3 Zrotation Yrotation Xrotation
					End Site
					{
						OFFSET 0.000000 0.000000 0.000000 
					}
				}
			}
		}
	}
	JOINT RightUpLeg
	{
		OFFSET -1.305520 -1.794630 0.839290 
		CHANNELS 3 Zrotation Yrotation Xrotation
		JOINT RightLeg
		{
			OFFSET -2.542530 -6.985550 0.000000 
			CHANNELS 3 Zrotation Yrotation Xrotation
			JOINT RightFoot
			{
				OFFSET -2.568260 -7.056230 0.000000 
				CHANNELS 3 Zrotation Yrotation Xrotation
				JOINT RightToeBase
				{
					OFFSET -0.164730 -0.452590 2.363150 
					CHANNELS 3 Zrotation Yrotation Xrotation
					End Site
					{
						OFFSET 0.000000 0.000000 0.000000 
					}
				}
			}
		}
	}
	JOINT Spine
	{
		OFFSET 0.028270 2.035590 -0.193380 
		CHANNELS 3 Zrotation Yrotation Xrotation
		JOINT Spine1
		{
			OFFSET 0.056720 2.048850 -0.042750 
			CHANNELS 3 Zrotation Yrotation Xrotation
			JOINT Neck1
			{
				OFFSET -0.054170 1.746240 0.172020 
				CHANNELS 3 Zrotation Yrotation Xrotation
				JOINT Head
				{
					OFFSET 0.104070 1.761360 -0.123970 
					CHANNELS 3 Zrotation Yrotation Xrotation
					End Site
					{
						OFFSET 0.000000 0.000000 0.000000 
					}
				}
			}
			JOINT LeftArm
			{
				OFFSET 3.362410 1.200890 -0.311210 
				CHANNELS 3 Zrotation Yrotation Xrotation
				JOINT LeftForeArm
				{
					OFFSET 4.983000 -0.000000 -0.000000 
					CHANNELS 3 Zrotation Yrotation Xrotation
					JOINT LeftHand
					{
						OFFSET 3.483560 -0.000000 -0.000000 
						CHANNELS 3 Zrotation Yrotation Xrotation
						JOINT LeftHandIndex1
						{
							OFFSET 0.715260 -0.000000 -0.000000 
							CHANNELS 3 Zrotation Yrotation Xrotation
							End Site
							{
								OFFSET 0.000000 0.000000 0.000000 
							}
						}
					}
				}
			}
			JOINT RightArm
			{
				OFFSET -3.136600 1.374050 -0.404650 
				CHANNELS 3 Zrotation Yrotation Xrotation
				JOINT RightForeArm
				{
					OFFSET -5.241900 -0.000000 -0.000000 
					CHANNELS 3 Zrotation Yrotation Xrotation
					JOINT RightHand
					{
						OFFSET -3.444170 -0.000000 -0.000000 
						CHANNELS 3 Zrotation Yrotation Xrotation
						JOINT RightHandIndex1
						{
							OFFSET -0.622530 -0.000000 -0.000000 
							CHANNELS 3 Zrotation Yrotation Xrotation
							End Site
							{
								OFFSET 0.000000 0.000000 0.000000 
							}
						}
					}
				}
			}
		}
	}
}
MOTION
Frames: 16
Frame Time: 0.041667
-0.320944 13.164858 2.592234 -23.178851 -75.015390 47.259814 -2.401950 15.301059 -50.393698 23.184945 21.431337 98.778153 2.101006 -11.505254 -18.096510 4.703300 -13.041700 -39.524700 17.996844 26.787719 -81.894506 -16.464948 -28.047168 84.301078 -1.815053 14.871841 -14.142829 -0.776700 -5.627100 15.706200 2.016711 -6.475371 -3.624539 -2.591215 -2.984713 -6.343986 -1.829101 20.986078 0.077197 -8.003600 9.165900 6.198900 -22.286246 -46.395833 -14.437838 19.465757 -22.395427 -3.149517 1.180276 4.209625 21.857378 -7.125000 0.000000 0.000000 90.887071 -11.107607 14.355153 -37.331670 42.100598 -10.049767 -1.487449 -3.021915 -11.362803 7.125000 0.000000 0.000000 
-0.324716 13.118193 2.595575 -23.682177 -75.233776 47.872201 -2.332149 15.597180 -50.655030 23.401679 21.384198 99.374884 2.097344 -11.573508 -18.082794 4.699200 -13.036800 -39.506400 17.932731 26.827699 -82.368406 -16.667292 -28.076656 84.812076 -1.825438 15.130850 -14.130090 -0.801500 -5.713800 15.956400 2.024058 -6.499611 -3.609586 -2.590096 -2.991004 -6.377159 -1.950445 21.044310 -0.088598 -8.049400 9.154000 6.132000 -21.539472 -46.848506 -16.638919 18.773713 -21.673814 -2.970997 1.244722 4.152811 23.329032 -7.125000 0.000000 0.000000 90.989645 -11.083509 14.315353 -37.026542 41.862364 -9.899185 -1.520552 -3.020206 -11.008401 7.125000 0.000000 0.000000 
-0.329135 13.074006 2.597730 -24.205374 -75.438832 48.485261 -2.251612 15.900905 -50.870739 23.601559 21.335076 99.922436 2.096250 -11.652942 -18.083880 4.701900 -13.040000 -39.518600 17.879464 26.889433 -82.801585 -16.860996 -28.103381 85.301935 -1.834875 15.361383 -14.120891 -0.828000 -5.805400 16.220800 2.025501 -6.515373 -3.593712 -2.616249 -2.993959 -6.409835 -2.043921 21.075865 -0.239949 -8.080700 9.134500 6.064500 -20.807784 -47.263329 -18.727734 18.167489 -21.033499 -2.815416 1.298796 4.092788 24.718137 -7.125000 0.000000 0.000000 91.122444 -11.056729 14.297122 -36.747758 41.655723 -9.767703 -1.550304 -3.028630 -10.678796 7.125000 0.000000 0.000000 
-0.333661 13.031760 2.599993 -24.696543 -75.614401 49.057271 -2.170589 16.181471 -51.065405 23.787119 21.286676 100.431271 2.097367 -11.729164 -18.101267 4.707500 -13.046600 -39.543100 17.833133 26.936787 -83.209423 -17.047185 -28.126436 85.772653 -1.843932 15.573757 -14.113403 -0.854400 -5.894900 16.479700 2.016322 -6.537140 -3.579367 -2.726809 -3.001761 -6.447645 -2.107574 21.075016 -0.374082 -8.099600 9.106200 5.999400 -20.085094 -47.607441 -20.535574 17.682409 -20.512101 -2.693419 1.340485 4.047213 25.814240 -7.125000 0.000000 0.000000 91.313805 -11.024778 14.273632 -36.497737 41.486436 -9.650225 -1.571119 -3.038354 -10.441381 7.125000 0.000000 0.000000 
-0.337972 12.991453 2.602903 -25.144613 -75.765548 49.579072 -2.099832 16.441007 -51.242992 23.958502 21.239462 100.902846 2.101302 -11.776185 -18.148334 4.721000 -13.062600 -39.603100 17.790503 26.969179 -83.593008 -17.225934 -28.145902 86.223974 -1.852722 15.766513 -14.110154 -0.879100 -5.977200 16.718200 1.997897 -6.563073 -3.566507 -2.908161 -3.013255 -6.491374 -2.149339 21.048294 -0.492908 -8.110600 9.070900 5.938000 -19.386028 -47.886325 -22.026348 17.313879 -20.110260 -2.603679 1.371790 4.020915 26.562994 -7.125000 0.000000 0.000000 91.548053 -10.989027 14.250893 -36.280659 41.355054 -9.548411 -1.583184 -3.049312 -10.302514 7.125000 0.000000 0.000000 
-0.342283 12.953194 2.605705 -25.507603 -75.904012 50.010370 -2.051132 16.676642 -51.403736 24.116663 21.194287 101.341009 2.107631 -11.805843 -18.215157 4.734500 -13.078400 -39.662500 17.741154 26.982274 -83.956190 -17.398610 -28.162111 86.658412 -1.861671 15.942075 -14.111319 -0.901400 -6.050700 16.931700 1.974066 -6.597121 -3.555008 -3.123344 -3.029986 -6.529787 -2.170242 21.000868 -0.588513 -8.111500 9.031300 5.887800 -18.731922 -48.091555 -23.181065 17.056217 -19.828551 -2.546533 1.394566 4.019812 26.952590 -7.125000 0.000000 0.000000 91.786137 -10.952394 14.270623 -36.096530 41.253945 -9.460377 -1.592173 -3.054021 -10.257977 7.125000 0.000000 0.000000 
-0.346594 12.917198 2.608938 -25.785436 -76.024967 50.351220 -2.021245 16.885611 -51.550964 24.262865 21.151751 101.748958 2.115365 -11.822381 -18.294997 4.741500 -13.086700 -39.693700 17.681478 26.981999 -84.294813 -17.564633 -28.175393 87.074565 -1.871611 16.092345 -14.125140 -0.920200 -6.111900 17.109300 1.947172 -6.630486 -3.543940 -3.359378 -3.047262 -6.566215 -2.183688 20.938168 -0.667488 -8.112900 8.987500 5.848600 -18.128931 -48.255268 -24.037718 16.886647 -19.644321 -2.513168 1.409941 4.034987 27.049129 -7.125000 0.000000 0.000000 92.038004 -10.911446 14.277129 -35.940270 41.177628 -9.383336 -1.595502 -3.054831 -10.226165 7.125000 0.000000 0.000000 
-0.350689 12.883466 2.612279 -25.994869 -76.132459 50.615229 -2.005973 17.074897 -51.685958 24.398255 21.112192 102.129578 2.124043 -11.819215 -18.384919 4.743500 -13.089000 -39.702600 17.614635 26.976778 -84.606370 -17.723115 -28.186194 87.470799 -1.882311 16.218799 -14.148801 -0.937600 -6.167600 17.271600 1.925751 -6.657077 -3.532547 -3.541217 -3.061130 -6.594907 -2.197491 20.873148 -0.732215 -8.112200 8.944000 5.817100 -17.609034 -48.396152 -24.703454 16.772391 -19.527687 -2.495671 1.421417 4.058401 26.986208 -7.125000 0.000000 0.000000 92.231103 -10.875160 14.319912 -35.817091 41.116422 -9.320971 -1.597801 -3.053351 -10.207344 7.125000 0.000000 0.000000 
-0.354461 12.852212 2.615405 -26.108122 -76.222884 50.781289 -2.011005 17.241293 -51.822928 24.523099 21.076815 102.483716 2.132881 -11.785888 -18.483552 4.743500 -13.089000 -39.702400 17.534071 26.962312 -84.897160 -17.872762 -28.194833 87.843163 -1.893852 16.315984 -14.184051 -0.951600 -6.212200 17.401400 1.911380 -6.674171 -3.520593 -3.661274 -3.069937 -6.616318 -2.219462 20.814775 -0.788313 -8.114700 8.903300 5.793000 -17.163981 -48.539316 -25.269022 16.689204 -19.451185 -2.484256 1.432786 4.075453 26.894380 -7.125000 0.000000 0.000000 92.380293 -10.837731 14.354685 -35.716034 41.060440 -9.267538 -1.601991 -3.044648 -10.118318 7.125000 0.000000 0.000000 
-0.358126 12.823114 2.618422 -26.184660 -76.294642 50.904505 -2.021034 17.402563 -51.958838 24.639990 21.043802 102.816056 2.141805 -11.733563 -18.587261 4.741900 -13.087100 -39.695200 17.450247 26.955610 -85.162119 -18.012122 -28.202062 88.189379 -1.906588 16.381337 -14.234722 -0.963100 -6.248600 17.507400 1.905629 -6.681871 -3.507543 -3.710118 -3.073986 -6.627399 -2.250782 20.767114 -0.839977 -8.120600 8.866800 5.770800 -16.792830 -48.688509 -25.806106 16.621491 -19.396357 -2.473611 1.443678 4.080789 26.845607 -7.125000 0.000000 0.000000 92.459372 -10.802090 14.422451 -35.645687 41.016368 -9.229744 -1.607061 -3.036905 -10.002116 7.125000 0.000000 0.000000 
-0.361574 12.796817 2.621117 -26.244291 -76.341836 51.007102 -2.029288 17.559823 -52.094902 24.747467 21.013124 103.121931 2.149811 -11.663144 -18.689771 4.740600 -13.085600 -39.689700 17.370457 26.956759 -85.399767 -18.138994 -28.208017 88.504256 -1.920377 16.419296 -14.298134 -0.972000 -6.276600 17.589200 1.904613 -6.676686 -3.493223 -3.721662 -3.071625 -6.629492 -2.284615 20.724253 -0.888526 -8.126800 8.832500 5.747400 -16.472503 -48.853449 -26.327526 16.566991 -19.353070 -2.458457 1.454379 4.064258 26.878814 -7.125000 0.000000 0.000000 92.497438 -10.767795 14.500612 -35.604360 40.990147 -9.208670 -1.613887 -3.030854 -9.858708 7.125000 0.000000 0.000000 
-0.365023 12.772892 2.623272 -26.284079 -76.371193 51.087149 -2.035764 17.717068 -52.228965 24.845840 20.984086 103.401402 2.156551 -11.597828 -18.780421 4.736700 -13.081000 -39.672400 17.287374 26.969090 -85.617252 -18.254167 -28.213134 88.789785 -1.934369 16.432334 -14.369850 -0.978200 -6.295900 17.645400 1.903508 -6.669436 -3.479052 -3.732890 -3.068483 -6.626355 -2.313619 20.679715 -0.932473 -8.132800 8.798900 5.722500 -16.184334 -49.015580 -26.818703 16.534477 -19.328851 -2.442052 1.462339 4.034093 26.953125 -7.125000 0.000000 0.000000 92.520270 -10.733846 14.608975 -35.595263 40.991014 -9.204237 -1.619702 -3.025859 -9.719521 7.125000 0.000000 0.000000 
-0.368256 12.751553 2.624889 -26.288228 -76.389247 51.126740 -2.043725 17.864293 -52.352103 24.932903 20.957814 103.648814 2.162182 -11.536153 -18.859581 4.733400 -13.077100 -39.657900 17.194530 26.994503 -85.810698 -18.357172 -28.217798 89.044206 -1.948748 16.418933 -14.450246 -0.980500 -6.303100 17.666500 1.902026 -6.658664 -3.465437 -3.739145 -3.063348 -6.623733 -2.338010 20.632634 -0.973383 -8.140200 8.765700 5.695900 -15.926297 -49.170633 -27.253992 16.525888 -19.327312 -2.426304 1.464765 3.994758 27.016255 -7.125000 0.000000 0.000000 92.527628 -10.701614 14.741268 -35.621521 41.019483 -9.216559 -1.620738 -3.023804 -9.615858 7.125000 0.000000 0.000000 
-0.371166 12.732693 2.625428 -26.264861 -76.400434 51.137513 -2.048707 18.001996 -52.467858 25.009250 20.934539 103.864940 2.166466 -11.496343 -18.920241 4.730300 -13.073500 -39.644300 17.096019 27.030057 -85.987941 -18.448344 -28.222137 89.269016 -1.962783 16.384761 -14.533417 -0.979500 -6.300200 17.657900 1.902557 -6.650970 -3.453107 -3.719939 -3.059562 -6.616517 -2.350806 20.582629 -1.003878 -8.141600 8.734100 5.670000 -15.707022 -49.300026 -27.634633 16.541140 -19.353188 -2.416232 1.463338 3.957965 27.043063 -7.125000 0.000000 0.000000 92.488497 -10.670286 14.941929 -35.684743 41.068632 -9.241850 -1.617875 -3.015346 -9.602920 7.125000 0.000000 0.000000 
-0.373860 12.716635 2.625535 -26.214054 -76.398297 51.116724 -2.044299 18.116835 -52.568955 25.072634 20.915563 104.042482 2.169660 -11.490653 -18.959205 4.725500 -13.067900 -39.623000 16.992721 27.075517 -86.141961 -18.526886 -28.226169 89.462092 -1.977098 16.324323 -14.625928 -0.974400 -6.284000 17.610600 1.902055 -6.643520 -3.442041 -3.705690 -3.055982 -6.610510 -2.352950 20.522961 -1.024812 -8.141500 8.700900 5.645300 -15.513625 -49.410596 -27.920705 16.585096 -19.412153 -2.414295 1.458518 3.928619 26.979828 -7.125000 0.000000 0.000000 92.447265 -10.631994 15.145393 -35.776515 41.139451 -9.276768 -1.607441 -3.003879 -9.647339 7.125000 0.000000 0.000000 
-0.376123 12.703487 2.625428 -26.148975 -76.374460 51.079157 -2.022192 18.203244 -52.658329 25.124635 20.901188 104.185343 2.172155 -11.522146 -18.977454 4.720000 -13.061400 -39.598700 16.893211 27.126858 -86.273157 -18.592498 -28.229757 89.622732 -1.991461 16.238901 -14.725800 -0.966300 -6.258800 17.537200 1.901080 -6.638319 -3.432638 -3.697954 -3.053863 -6.606661 -2.343121 20.453966 -1.034257 -8.137300 8.666700 5.622700 -15.349522 -49.498570 -28.095654 16.655881 -19.504069 -2.423540 1.455453 3.913387 26.802447 -7.125000 0.000000 0.000000 92.391813 -10.586584 15.356616 -35.895046 41.227154 -9.318729 -1.589021 -2.986853 -9.765859 7.125000 0.000000 0.000000 
